Patient4_TMGait_0pt2_01_left_24_GRF.mot
version=1
nRows=45
nColumns=19
inDegrees=no
endheader
time	F1x	F1y	F1z	M1x	M1y	M1z	F2x	F2y	F2z	M2x	M2y	M2z	EC1x	EC1y	EC1z	EC2x	EC2y	EC2z
54.95	-2.1927	13.9171	1.1546	-4.6663	-1.6372	14.2033	-20.5086	755.0668	-44.3758	281.7569	61.9209	857.4181	-0.0592	0.0182	-0.0073	-0.0462	0.0165	0.9585
54.9723	-1.8797	10.786	1.0431	-3.6037	-1.519	11.0244	-24.2152	774.5905	-43.7631	289.3231	62.1252	878.3919	-0.0592	0.0182	-0.0073	-0.0462	0.0165	0.9585
54.9946	-1.4306	7.522	0.84087	-2.5069	-1.2488	7.7225	-27.9777	798.7212	-43.2153	298.5947	62.3626	904.1558	-0.0592	0.0182	-0.0073	-0.0462	0.0165	0.9585
55.0169	-0.91227	4.5665	0.59431	-1.5186	-0.89132	4.7328	-31.4134	825.4398	-42.8463	308.7721	62.6225	932.369	-0.0592	0.0182	-0.0073	-0.0462	0.0165	0.9585
55.0391	-0.42675	2.1928	0.35988	-0.72532	-0.53964	2.3279	-34.1422	851.3824	-42.7208	318.5614	62.8324	959.2088	-0.0592	0.0182	-0.0073	-0.0462	0.0165	0.9585
55.0614	-0.029534	0.46397	0.1685	-0.1451	-0.24848	0.56822	-35.8153	872.4344	-42.814	326.403	62.8344	980.053	-0.0592	0.0182	-0.0073	-0.0462	0.0165	0.9585
55.0837	0.25873	-0.69165	0.030764	0.24644	-0.040028	-0.62333	-36.1705	884.759	-43.0135	330.8605	62.4127	990.6316	-0.0592	0.0182	-0.0073	-0.0462	0.0165	0.9585
55.106	0.43953	-1.4148	-0.055608	0.49523	0.086418	-1.3895	-35.0639	885.8759	-43.148	331.0239	61.3431	988.2313	-0.0592	0.0182	-0.0073	-0.0462	0.0165	0.9585
55.1283	0.52919	-1.8674	-0.099205	0.65462	0.14381	-1.8921	-32.4731	875.3337	-43.0487	326.7539	59.4638	972.4234	-0.0592	0.0182	-0.0073	-0.0462	0.0165	0.9585
55.1506	0.55006	-2.2111	-0.11149	0.77726	0.14986	-2.2872	-28.508	854.7319	-42.6131	318.6835	56.7403	945.0764	-0.0592	0.0182	-0.0073	-0.0462	0.0165	0.9585
55.1729	0.52605	-2.5846	-0.10426	0.90851	0.12469	-2.715	-23.3928	827.252	-41.8299	308.0344	53.2804	909.8106	-0.0592	0.0182	-0.0073	-0.0462	0.0165	0.9585
55.1951	0.47799	-3.0919	-0.088444	1.0826	0.088019	-3.2853	-17.4354	796.9046	-40.7775	296.3322	49.312	871.152	-0.0592	0.0182	-0.0073	-0.0462	0.0165	0.9585
55.2174	0.42207	-3.7876	-0.078657	1.3175	0.060937	-4.057	-11.0015	767.7189	-39.5943	285.1014	45.134	833.6399	-0.0592	0.0182	-0.0073	-0.0462	0.0165	0.9585
55.2397	0.37145	-4.6562	-0.093415	1.6061	0.067705	-5.0125	-4.4895	743.0539	-38.4386	275.6062	41.0605	801.0713	-0.0592	0.0182	-0.0073	-0.0462	0.0165	0.9585
55.262	0.34424	-5.5862	-0.154	1.9072	0.13789	-6.027	1.7034	725.1391	-37.4504	268.6805	37.3737	776.0031	-0.0592	0.0182	-0.0073	-0.0462	0.0165	0.9585
55.2843	0.36756	-6.3295	-0.27987	2.1328	0.30399	-6.8284	7.2333	714.8886	-36.7288	264.661	34.2868	759.5492	-0.0592	0.0182	-0.0073	-0.0462	0.0165	0.9585
55.3066	0.47679	-6.4699	-0.48831	2.1398	0.59875	-6.9646	11.8358	711.9262	-36.3263	263.3975	31.9337	751.4194	-0.0592	0.0182	-0.0073	-0.0462	0.0165	0.9585
55.3289	0.71439	-5.3999	-0.78858	1.7209	1.0457	-5.7737	15.337	714.7895	-36.2625	264.3314	30.3817	750.1464	-0.0592	0.0182	-0.0073	-0.0462	0.0165	0.9585
55.3511	1.1272	-2.3294	-1.1742	0.60444	1.6531	-2.3801	17.6616	721.2823	-36.5232	266.6296	29.6297	753.4577	-0.0592	0.0182	-0.0073	-0.0462	0.0165	0.9585
55.3734	1.7544	3.6727	-1.6133	-1.5288	2.398	4.2522	18.8269	728.9087	-37.0538	269.3501	29.6052	758.7301	-0.0592	0.0182	-0.0073	-0.0462	0.0165	0.9585
55.3957	2.6107	13.5648	-2.0355	-5.0031	3.2033	15.1961	18.9328	735.2629	-37.7609	271.5894	30.1716	763.4038	-0.0592	0.0182	-0.0073	-0.0462	0.0165	0.9585
55.418	3.6641	28.102	-2.3154	-10.0678	3.9113	31.3088	18.1493	738.2093	-38.5191	272.5516	31.1388	765.1776	-0.0592	0.0182	-0.0073	-0.0462	0.0165	0.9585
55.4403	4.7841	47.4835	-2.256	-16.7732	4.246	52.8376	16.6994	735.9188	-39.173	271.5611	32.2659	762.0531	-0.0592	0.0182	-0.0073	-0.0462	0.0165	0.9585
55.4626	5.622	71.0189	-1.5795	-24.8549	3.7627	79.0446	14.8297	726.9758	-39.5585	268.1016	33.2959	752.4514	-0.0592	0.0182	-0.0073	-0.0462	0.0165	0.9585
55.4849	5.8771	97.1385	-0.037603	-33.7454	2.0769	108.2151	12.7821	710.682	-39.5383	261.9261	34.0037	735.5371	-0.0592	0.0182	-0.0073	-0.0462	0.0165	0.9585
55.5071	5.5563	124.1285	2.2592	-42.8536	-0.67461	138.4448	10.7901	687.3976	-39.045	253.1805	34.2429	711.5632	-0.0592	0.0182	-0.0073	-0.0462	0.0165	0.9585
55.5294	4.7502	151.1596	4.9405	-51.9119	-4.0306	168.7948	9.0643	658.5763	-38.0824	242.4165	33.9489	681.9087	-0.0592	0.0182	-0.0073	-0.0462	0.0165	0.9585
55.5517	3.5159	178.3477	7.697	-60.9803	-7.6127	199.3875	7.741	626.3105	-36.7022	230.4218	33.1299	648.6323	-0.0592	0.0182	-0.0073	-0.0462	0.0165	0.9585
55.574	1.8916	206.136	10.366	-70.2252	-11.2211	230.7029	6.8497	592.6807	-34.9916	217.9752	31.8628	613.8179	-0.0592	0.0182	-0.0073	-0.0462	0.0165	0.9585
55.5963	-0.01412	234.7875	12.9241	-79.743	-14.7941	262.9961	6.3177	559.279	-33.0728	205.6682	30.2911	579.0868	-0.0592	0.0182	-0.0073	-0.0462	0.0165	0.9585
55.6186	-1.9889	264.0453	15.4084	-89.449	-18.3029	295.917	6.0089	527.0203	-31.0752	193.8359	28.5855	545.3955	-0.0592	0.0182	-0.0073	-0.0462	0.0165	0.9585
55.6409	-3.7784	293.0949	17.8349	-99.0693	-21.6817	328.4843	5.784	496.2489	-29.1083	182.5985	26.8959	513.137	-0.0592	0.0182	-0.0073	-0.0462	0.0165	0.9585
55.6631	-5.1941	320.9795	20.1508	-108.2828	-24.8157	359.5797	5.5505	466.984	-27.2551	171.9523	25.3262	482.3763	-0.0592	0.0182	-0.0073	-0.0462	0.0165	0.9585
55.6854	-6.1559	347.039	22.2571	-116.8658	-27.5764	388.4474	5.2804	439.1295	-25.5672	161.8491	23.9242	453.0498	-0.0592	0.0182	-0.0073	-0.0462	0.0165	0.9585
55.7077	-6.6762	370.9945	24.0706	-124.7224	-29.8779	414.785	5.0102	412.5998	-24.0592	152.2436	22.6838	425.0876	-0.0592	0.0182	-0.0073	-0.0462	0.0165	0.9585
55.73	-6.8179	392.8168	25.5601	-131.8415	-31.705	438.5917	4.8179	387.3659	-22.7273	143.1116	21.5693	398.4721	-0.0592	0.0182	-0.0073	-0.0462	0.0165	0.9585
55.7523	-6.6658	412.5678	26.734	-138.2445	-33.0887	459.9686	4.7807	363.4517	-21.5676	134.449	20.5459	373.24	-0.0592	0.0182	-0.0073	-0.0462	0.0165	0.9585
55.7746	-6.2998	430.3099	27.6111	-143.9594	-34.0633	479.0018	4.9485	340.8884	-20.5821	126.2586	19.5946	349.4399	-0.0592	0.0182	-0.0073	-0.0462	0.0165	0.9585
55.7969	-5.7762	446.1509	28.2116	-149.0354	-34.6533	495.8091	5.3242	319.6569	-19.7667	118.5298	18.7117	327.0654	-0.0592	0.0182	-0.0073	-0.0462	0.0165	0.9585
55.8191	-5.1387	460.3493	28.5751	-153.5722	-34.9017	510.661	5.8659	299.6126	-19.0929	111.2091	17.8891	305.9807	-0.0592	0.0182	-0.0073	-0.0462	0.0165	0.9585
55.8414	-4.4411	473.3892	28.7814	-157.7423	-34.9008	524.0789	6.4981	280.4052	-18.5026	104.169	17.0986	285.8428	-0.0592	0.0182	-0.0073	-0.0462	0.0165	0.9585
55.8637	-3.7439	486.0235	28.9593	-161.8012	-34.8019	536.8746	7.1329	261.4694	-17.913	97.2026	16.2888	266.0868	-0.0592	0.0182	-0.0073	-0.0462	0.0165	0.9585
55.886	-3.1104	499.2596	29.2759	-166.083	-34.7998	550.1356	7.6799	242.1196	-17.2335	90.0576	15.3992	246.0206	-0.0592	0.0182	-0.0073	-0.0462	0.0165	0.9585
55.9083	-2.6057	514.2659	29.903	-170.973	-35.0969	565.1184	8.0403	221.6978	-16.379	82.4908	14.3809	224.9871	-0.0592	0.0182	-0.0073	-0.0462	0.0165	0.9585
55.9306	-2.2927	532.203	30.9827	-176.8542	-35.8662	583.0645	8.1141	199.7289	-15.2865	74.3271	13.2103	202.514	-0.0592	0.0182	-0.0073	-0.0462	0.0165	0.9585
